<?xml version="1.0" standalone="no"?><!DOCTYPE svg PUBLIC "-//W3C//DTD SVG 1.1//EN" "http://www.w3.org/Graphics/SVG/1.1/DTD/svg11.dtd"><svg t="1755881339298" class="icon" viewBox="0 0 1024 1024" version="1.1" xmlns="http://www.w3.org/2000/svg" p-id="31389" xmlns:xlink="http://www.w3.org/1999/xlink" width="200" height="200"><path d="M512 512m-512 0a512 512 0 1 0 1024 0 512 512 0 1 0-1024 0Z" fill="#00923f" p-id="31390" data-spm-anchor-id="a313x.search_index.0.i4.78fa3a81faEzcq" class="selected"></path><path d="M390.875429 782.994286c-1.901714-13.421714 14.262857-44.763429 17.115428-47.798857 1.755429-1.865143 65.462857 53.906286 103.350857 51.675428h0.219429c37.814857 3.072 102.363429-53.504 104.118857-51.638857 2.852571 3.072 19.017143 34.377143 17.115429 47.835429-4.754286 33.572571 49.481143 35.620571 54.198857-50.834286 2.852571-54.966857-14.262857-60.013714-11.410286-62.061714 2.852571-2.048 22.820571-55.954286 22.820571-55.954286 35.218286-117.979429-25.673143-196.315429-25.673142-196.315429h19.017142c19.017143 0 28.525714-10.130286 28.525715-10.130285s21.906286-18.322286 39.021714-14.262858c17.115429 4.022857 45.641143-8.118857 53.248-4.059428 7.570286 4.022857 45.641143 14.262857 45.641143 14.262857 38.034286-2.048 10.459429-22.418286 0.950857-41.728-9.508571-19.309714-60.854857-39.68-60.854857-39.68-21.869714-17.298286-71.314286-10.130286-71.314286-10.130286-43.739429-3.072-118.857143 44.726857-118.857143 44.726857-4.754286-11.190857-45.641143-27.465143-45.641143-27.465142s2.852571-29.476571-2.852571-51.894858c-3.474286-13.421714-22.820571-53.174857-41.874286-57.782857h-0.438857a17.773714 17.773714 0 0 0-2.194286-0.329143h-6.436571c-19.675429 1.316571-40.850286 44.141714-44.434286 58.221715-5.229714 20.48-3.291429 46.884571-2.852571 51.273143 0 0.365714-0.182857 0.694857-0.475429 0.841142-4.754286 1.938286-38.985143 16.091429-44.726857 26.477715a0.768 0.768 0 0 1-0.475428 0.365714 0.731429 0.731429 0 0 1-0.585143-0.036571c-7.606857-4.754286-76.8-47.177143-118.125715-44.324572-1.682286-0.256-49.737143-6.802286-71.314285 10.093714-2.084571 0.841143-51.346286 20.736-60.818286 39.68-9.435429 18.944-37.083429 39.68 0.841143 41.691429h0.219428c2.121143-0.548571 38.144-10.24 45.641143-14.189714 7.497143-3.986286 35.693714 8.009143 52.809143 3.913143 17.115429-4.096 38.619429 13.970286 38.985143 14.262857 0.219429 0.256 9.728 10.166857 28.525714 10.166857h19.017143s-60.854857 78.299429-25.673143 196.278857c0 0.256 19.968 53.906286 22.820572 55.954286 2.852571 1.974857-14.262857 7.094857-11.410286 62.025143 4.754286 86.491429 58.953143 84.443429 54.235429 50.870857z" fill="#FFFFFF" p-id="31391"></path></svg>