<?xml version="1.0" standalone="no"?><!DOCTYPE svg PUBLIC "-//W3C//DTD SVG 1.1//EN" "http://www.w3.org/Graphics/SVG/1.1/DTD/svg11.dtd"><svg t="1757043072038" class="icon" viewBox="0 0 1024 1024" version="1.1" xmlns="http://www.w3.org/2000/svg" p-id="4411" xmlns:xlink="http://www.w3.org/1999/xlink" width="32" height="32"><path d="M1007.95805 328.325L531.91505 10.649a36.062 36.062 0 0 0-40.004 0L16.05605 328.325c-16.574 11.082-21.035 33.477-10 50.004 11.031 16.574 33.383 20.988 50 10l35.262-23.523v492.335c0 89.492 80.898 162.266 180.297 162.266h480.785c99.395 0 180.293-72.773 180.293-162.266V364.805l35.262 23.523c6.148 4.086 13.098 6.059 19.953 6.059 11.645 0 23.102-5.637 30.051-16.059 11.03-16.574 6.573-38.921-10.001-50.003zM860.57505 857.141c0 49.723-48.547 90.148-108.176 90.148H271.61405c-59.629 0-108.18-40.426-108.18-90.148V316.633L511.91105 83.989 860.57505 316.68v540.461z" fill="#5990F7" p-id="4412"></path><path d="M331.71205 742.953c0 19.91 16.152 36.059 36.059 36.059h288.473c19.906 0 36.059-16.148 36.059-36.059 0-19.906-16.152-36.059-36.059-36.059H367.77105c-19.907 0.001-36.059 16.153-36.059 36.059z" fill="#5990F7" p-id="4413"></path></svg>